<?xml version="1.0" encoding="UTF-8"?>
<svg width="756px" height="615px" viewBox="0 0 756 615" xmlns="http://www.w3.org/2000/svg" xmlns:xlink="http://www.w3.org/1999/xlink" version="1.1">
 <!-- Generated by Pixelmator Pro 2.3 -->
 <path id="Фигура" d="M370.759 615 C362.862 615 355.973 614.606 355.45 614.124 354.927 613.643 352.025 612.944 349 612.573 345.975 612.201 339 610.544 333.5 608.89 328 607.236 320.657 604.774 317.182 603.418 313.707 602.063 307.407 599.212 303.182 597.083 298.957 594.954 289.903 589.763 283.061 585.547 276.22 581.332 266.545 574.904 261.561 571.264 256.578 567.624 247.1 560.342 240.5 555.083 233.9 549.824 223.17 541.016 216.656 535.51 210.142 530.005 202.187 523.25 198.978 520.5 195.77 517.75 186.516 509.875 178.415 503 170.313 496.125 157.568 485.416 150.092 479.201 142.617 472.987 132.9 465.133 128.5 461.748 124.1 458.363 117.35 452.93 113.5 449.675 109.65 446.421 103.923 441.55 100.773 438.852 97.624 436.154 91.324 430.716 86.773 426.769 82.223 422.821 75.125 416.441 71 412.59 66.875 408.74 59.495 401.519 54.599 396.545 49.704 391.57 42.475 383.829 38.536 379.343 34.597 374.857 28.477 367.097 24.937 362.1 21.397 357.102 16.403 348.977 13.841 344.044 11.278 339.111 8.199 332.245 6.999 328.787 5.799 325.329 4.245 319.515 3.547 315.866 2.764 311.778 2.436 304.486 2.691 296.866 2.94 289.457 3.859 281.494 4.985 277 6.019 272.875 8.468 265.675 10.428 261 12.388 256.325 16.357 248.321 19.246 243.214 22.136 238.106 26.975 230.53 30 226.378 33.025 222.226 39.1 214.278 43.5 208.715 47.9 203.152 58.025 191.875 66 183.656 73.975 175.437 86.59 163.039 94.033 156.106 101.476 149.173 112.906 138.775 119.433 133 125.96 127.225 135.26 119.125 140.1 115 144.941 110.875 152.861 104.105 157.7 99.955 162.54 95.806 171.273 88.549 177.106 83.829 182.939 79.109 192.839 71.421 199.106 66.744 205.373 62.067 216.862 53.914 224.637 48.627 232.412 43.339 241.716 37.226 245.312 35.041 248.908 32.856 255.147 29.364 259.175 27.281 263.204 25.197 269.2 22.273 272.5 20.782 275.8 19.291 281.425 16.761 285 15.159 288.575 13.557 295.1 11.04 299.5 9.566 303.9 8.092 311.1 6.049 315.5 5.026 319.9 4.004 325.75 2.842 328.5 2.446 331.25 2.05 333.65 1.338 333.833 0.863 334.017 0.388 341.742 0 351 0 360.258 0 367.983 0.381 368.167 0.847 368.35 1.314 371.425 1.969 375 2.304 378.575 2.638 386.675 4.086 393 5.521 399.709 7.043 411.374 10.888 421 14.75 430.075 18.392 442.378 23.775 448.341 26.713 454.303 29.651 463.529 34.675 468.841 37.877 474.153 41.08 483.225 46.603 489 50.151 494.775 53.699 504.675 60.093 511 64.359 517.325 68.625 526.775 75.056 532 78.65 537.225 82.244 546.225 88.651 552 92.888 557.775 97.125 565.875 103.022 570 105.991 574.125 108.961 580.715 113.665 584.645 116.445 588.575 119.225 595.433 124.318 599.885 127.763 604.337 131.208 611.922 137.019 616.74 140.677 621.558 144.335 629.1 150.065 633.5 153.411 637.9 156.757 644.2 161.671 647.5 164.332 650.8 166.993 655.974 171.269 658.999 173.835 662.023 176.401 669.448 182.992 675.499 188.482 681.549 193.973 691.575 203.563 697.779 209.794 703.982 216.025 712.372 225.105 716.424 229.973 720.475 234.841 726.705 243.251 730.267 248.662 733.829 254.073 738.665 262.325 741.013 267 743.361 271.675 746.357 278.65 747.672 282.5 748.986 286.35 750.723 292.34 751.531 295.812 752.422 299.639 753 307.212 753 315.048 753 322.156 752.487 330.115 751.86 332.736 751.232 335.356 749.823 340.425 748.728 344 747.633 347.575 744.612 355 742.016 360.5 739.42 366 734.139 375.225 730.279 381 726.42 386.775 719.496 395.98 714.892 401.457 710.289 406.933 699.767 418.361 691.511 426.854 683.255 435.346 668.625 448.887 659 456.944 649.375 465.002 634.75 476.798 626.5 483.159 618.25 489.519 604.075 500.293 595 507.1 585.925 513.907 571.975 523.923 564 529.356 556.025 534.79 542.205 544.02 533.288 549.868 524.371 555.715 513.39 562.75 508.884 565.5 504.378 568.25 498.174 571.975 495.096 573.777 492.018 575.579 482.835 580.433 474.689 584.564 466.543 588.694 454.843 594.049 448.689 596.462 442.535 598.876 433.675 602.267 429 603.997 424.325 605.728 415.805 608.257 410.066 609.617 404.327 610.978 396.128 612.361 391.847 612.691 387.565 613.021 384.3 613.676 384.59 614.146 384.88 614.616 378.656 615 370.759 615 Z" fill="#32174d" fill-opacity="1" stroke="none"/>
</svg>
