<?xml version="1.0" encoding="UTF-8"?>
<svg width="403px" height="403px" viewBox="0 0 403 403" xmlns="http://www.w3.org/2000/svg" xmlns:xlink="http://www.w3.org/1999/xlink" version="1.1">
 <!-- Generated by Pixelmator Pro 2.3 -->
 <g id="face-recognition">
  <g id="Gruppe_1341">
   <g id="freepik--Selfie--inject-33">
    <path id="Pfad_28423" d="M18.369 41.268 L275.569 8.368 312.269 268.168 52.469 304.868 Z" fill="#fafafa" fill-opacity="1" stroke="#a5a5a5" stroke-width="0.659" stroke-opacity="1" stroke-linejoin="round" stroke-linecap="round"/>
    <path id="Rechteck_874" d="M28.356 49.186 L268.494 17.652 300.575 261.955 60.437 293.489 Z" fill="#e0e0e0" fill-opacity="1" stroke="none"/>
    <g id="Gruppe_1344">
     <g id="Gruppe_1341-2">
      <path id="Pfad_28424" d="M130.369 284.968 C145.969 264.268 162.269 243.968 162.269 243.968 L104.469 240.468 C104.469 240.468 82.069 273.768 69.569 292.968 Z" fill="#ffbe9d" fill-opacity="1" stroke="none"/>
     </g>
     <path id="Pfad_28425" d="M290.669 190.268 L281.669 189.068 265.169 238.368 297.269 241.368 Z" fill="#ffbe9d" fill-opacity="1" stroke="none"/>
     <path id="Pfad_28426" d="M146.969 115.868 C147.717 117.401 147.522 119.227 146.469 120.568 145.362 121.86 143.594 122.371 141.969 121.868 138.869 120.968 137.869 117.168 137.869 113.968 137.869 110.768 138.369 107.268 136.469 104.668 134.847 102.873 132.916 101.383 130.769 100.268 127.248 97.777 125.101 93.779 124.969 89.468 124.974 85.153 127.358 81.192 131.169 79.168 135.069 77.268 140.369 77.668 142.869 74.168 144.669 71.568 144.169 68.068 145.469 65.168 147.369 60.668 152.969 59.068 157.769 58.868 162.669 58.668 167.769 59.368 172.169 57.368 175.869 55.668 178.569 52.468 181.869 50.068 191.546 43.386 204.8 45.752 211.569 55.368 215.353 60.792 216.389 67.671 214.369 73.968 213.57 77.054 211.689 79.751 209.069 81.568" fill="#263238" fill-opacity="1" stroke="none"/>
     <path id="Pfad_28427" d="M161.869 197.368 L206.969 188.268 C206.569 182.968 203.769 162.368 203.769 162.368 203.769 162.368 222.369 157.068 220.369 137.968 218.369 118.868 209.669 75.868 209.669 75.868 186.569 69.137 161.635 75.409 144.469 92.268 L141.969 94.768 Z" fill="#ffbe9d" fill-opacity="1" stroke="none"/>
     <path id="Pfad_28428" d="M209.069 108.968 C207.827 108.057 207.558 106.311 208.469 105.068 209.38 103.826 211.126 103.557 212.369 104.468 213.611 105.379 213.88 107.125 212.969 108.368 212.042 109.584 210.319 109.849 209.069 108.968 Z" fill="#263238" fill-opacity="1" stroke="none"/>
     <path id="Pfad_28429" d="M213.169 104.068 C212.869 104.468 210.869 103.268 208.269 103.568 205.669 103.868 203.969 105.468 203.569 105.168 203.169 104.868 203.569 104.368 204.369 103.668 205.408 102.749 206.695 102.157 208.069 101.968 209.468 101.76 210.894 102.081 212.069 102.868 212.869 103.368 213.269 103.968 213.169 104.068 Z" fill="#263238" fill-opacity="1" stroke="none"/>
     <path id="Pfad_28430" d="M183.369 110.168 C184.86 110.776 185.576 112.477 184.968 113.967 184.361 115.458 182.66 116.174 181.169 115.567 179.678 114.96 178.962 113.259 179.569 111.768 179.859 111.051 180.423 110.479 181.137 110.179 181.85 109.878 182.653 109.874 183.369 110.168 Z" fill="#263238" fill-opacity="1" stroke="none"/>
     <path id="Pfad_28431" d="M185.069 109.968 C184.769 110.368 182.769 109.168 180.169 109.468 177.569 109.768 175.869 111.368 175.469 111.068 175.069 110.768 175.569 110.268 176.269 109.568 177.282 108.611 178.582 108.013 179.969 107.868 181.354 107.675 182.764 107.957 183.969 108.668 184.869 109.168 185.169 109.768 185.069 109.968 Z" fill="#263238" fill-opacity="1" stroke="none"/>
     <path id="Pfad_28432" d="M198.169 130.168 C199.444 129.466 200.831 128.992 202.269 128.768 202.969 128.668 203.469 128.368 203.469 127.968 203.387 127.289 203.147 126.638 202.769 126.068 Q201.419 123.668 200.069 120.968 C197.542 116.729 195.464 112.238 193.869 107.568 196.805 111.528 199.319 115.785 201.369 120.268 202.269 122.068 203.169 123.668 203.969 125.368 204.501 126.163 204.748 127.115 204.669 128.068 204.539 128.634 204.121 129.089 203.569 129.268 203.217 129.414 202.847 129.515 202.469 129.568 201.094 130.067 199.629 130.271 198.169 130.168 Z" fill="#263238" fill-opacity="1" stroke="none"/>
     <path id="Pfad_28433" d="M190.069 134.068 C194.344 135.406 198.79 136.113 203.269 136.168 201.812 139.201 198.449 140.82 195.169 140.068 189.269 138.768 190.069 134.068 190.069 134.068 Z" fill="#ffffff" fill-opacity="1" stroke="none"/>
     <path id="Pfad_28434" d="M203.669 161.968 C194.927 163.265 185.998 161.869 178.069 157.968 178.069 157.968 185.569 170.968 204.269 166.868 Z" fill="#eb996e" fill-opacity="1" stroke="none"/>
     <path id="Pfad_28435" d="M210.369 80.668 C210.369 80.668 200.169 88.468 183.769 83.968 173.069 81.068 161.269 80.968 159.169 83.368 157.069 85.768 158.469 95.968 149.469 100.768 149.469 100.768 153.969 119.768 146.369 120.668 138.769 121.568 137.469 90.868 137.469 90.868 L154.269 78.068 173.869 70.068 193.569 68.968 209.269 70.068 Z" fill="#263238" fill-opacity="1" stroke="none"/>
     <path id="Pfad_28436" d="M146.469 114.168 C146.169 114.168 132.969 111.868 134.969 124.868 136.969 137.868 149.469 133.068 149.469 132.768 149.469 132.468 146.469 114.168 146.469 114.168 Z" fill="#ffbe9d" fill-opacity="1" stroke="none"/>
     <path id="Pfad_28437" d="M144.769 128.468 C144.628 128.631 144.459 128.766 144.269 128.868 143.76 129.184 143.137 129.257 142.569 129.068 140.684 128.267 139.382 126.505 139.169 124.468 138.965 123.361 139.069 122.22 139.469 121.168 139.551 120.301 140.083 119.542 140.869 119.168 141.373 118.983 141.939 119.145 142.269 119.568 142.469 119.868 142.369 120.168 142.469 120.168 142.569 120.168 142.669 119.868 142.569 119.368 142.453 119.074 142.242 118.827 141.969 118.668 141.574 118.438 141.095 118.401 140.669 118.568 139.638 118.976 138.884 119.88 138.669 120.968 138.255 122.158 138.185 123.44 138.469 124.668 138.689 127.036 140.303 129.044 142.569 129.768 143.307 129.845 144.04 129.588 144.569 129.068 144.869 128.868 144.869 128.468 144.769 128.468 Z" fill="#eb996e" fill-opacity="1" stroke="none"/>
     <path id="Pfad_28442" d="M136.069 284.268 L137.469 281.368 137.769 284.068 261.269 267.868 C257.669 254.668 255.269 245.668 255.269 245.668 L289.269 252.668 294.169 217.668 289.569 182.768 242.969 176.268 C229.844 174.185 216.552 173.348 203.269 173.768 189.91 179.856 174.998 181.672 160.569 178.968 154.549 179.936 148.714 181.825 143.269 184.568 133.055 189.716 124.16 197.14 117.269 206.268 L78.369 272.468 102.569 288.768 Z" fill="#32174d" fill-opacity="1" stroke="none"/>
     <path id="Pfad_28438" d="M132.769 75.168 C132.569 74.868 134.569 73.668 137.369 74.168 140.169 74.668 141.569 76.468 141.269 76.768 140.969 77.068 139.369 76.068 137.069 75.668 134.769 75.268 132.869 75.468 132.769 75.168 Z" fill="#263238" fill-opacity="1" stroke="none"/>
     <path id="Pfad_28439" d="M139.069 66.068 C139.469 65.968 139.869 68.768 140.769 71.868 141.669 74.968 143.469 77.068 143.169 77.168 142.869 77.268 140.469 75.668 139.369 72.168 138.673 70.208 138.568 68.087 139.069 66.068 Z" fill="#263238" fill-opacity="1" stroke="none"/>
     <path id="Pfad_28440" d="M199.969 101.368 C199.469 100.768 201.569 98.368 205.369 97.768 209.169 97.168 211.969 98.668 211.669 99.368 211.369 100.068 208.969 100.068 205.869 100.568 202.769 101.068 200.369 102.068 199.969 101.368 Z" fill="#263238" fill-opacity="1" stroke="none"/>
     <path id="Pfad_28441" d="M170.669 102.568 C170.169 101.968 172.269 99.568 176.069 98.968 179.869 98.368 182.569 99.868 182.369 100.668 182.169 101.468 179.669 101.268 176.569 101.868 173.469 102.468 171.069 103.268 170.669 102.568 Z" fill="#263238" fill-opacity="1" stroke="none"/>
     <path id="Pfad_28443" d="M136.469 283.668 C138.41 277.67 141.134 271.954 144.569 266.668 143.822 269.72 142.643 272.649 141.069 275.368 139.939 278.339 138.39 281.134 136.469 283.668 Z" fill="#263238" fill-opacity="1" stroke="none"/>
     <g id="Gruppe_1342">
      <path id="Pfad_28444" d="M292.269 216.868 C292.269 217.268 249.069 222.768 195.769 229.368 142.469 235.968 99.169 240.968 99.069 240.568 98.969 240.168 142.269 234.668 195.669 228.068 249.069 221.468 292.269 216.468 292.269 216.868 Z" fill="#ffffff" fill-opacity="1" stroke="none"/>
     </g>
     <g id="Gruppe_1343">
      <path id="Pfad_28445" d="M258.869 255.368 C258.869 255.668 220.269 260.768 172.569 266.668 124.869 272.568 86.069 276.968 86.069 276.668 86.069 276.368 124.669 271.268 172.469 265.368 220.269 259.468 258.769 255.068 258.869 255.368 Z" fill="#ffffff" fill-opacity="1" stroke="none"/>
     </g>
     <path id="Pfad_28446" d="M290.069 185.568 C276.469 186.968 244.669 190.768 207.569 195.268 158.169 201.368 118.169 206.568 118.169 206.868 118.169 207.168 158.369 202.568 207.669 196.468 244.669 191.868 276.469 187.868 290.069 185.968 Z" fill="#ffffff" fill-opacity="1" stroke="none"/>
    </g>
    <g id="Gruppe_1345">
     <path id="Pfad_28447" d="M180.269 165.368 L165.769 167.368 C165.069 162.168 164.469 158.068 163.769 152.868" fill="none" stroke="#d65d82" stroke-width="7" stroke-opacity="1" stroke-linejoin="round" stroke-linecap="round"/>
     <path id="Pfad_28448" d="M224.669 145.768 C225.269 150.068 225.869 154.468 226.469 158.768 L212.869 160.668" fill="none" stroke="#d65d82" stroke-width="7" stroke-opacity="1" stroke-linejoin="round" stroke-linecap="round"/>
     <path id="Pfad_28449" d="M202.769 82.368 L216.269 80.468 218.169 93.968" fill="none" stroke="#d65d82" stroke-width="7" stroke-opacity="1" stroke-linejoin="round" stroke-linecap="round"/>
     <path id="Pfad_28450" d="M157.369 102.368 C156.769 97.968 156.169 93.468 155.469 89.068 L169.069 87.168" fill="none" stroke="#d65d82" stroke-width="7" stroke-opacity="1" stroke-linejoin="round" stroke-linecap="round"/>
     <path id="Pfad_28451" d="M222.469 69.968 L224.369 71.268 226.469 67.268" fill="none" stroke="#d65d82" stroke-width="1.75" stroke-opacity="1" stroke-linejoin="round" stroke-linecap="round"/>
     <path id="Ellipse_280" d="M230.269 69.268 C230.269 72.526 227.627 75.168 224.369 75.168 221.111 75.168 218.469 72.526 218.469 69.268 218.469 66.01 221.111 63.368 224.369 63.368 227.627 63.368 230.269 66.01 230.269 69.268 Z" fill="none" stroke="#d65d82" stroke-width="2" stroke-opacity="1" stroke-linejoin="round" stroke-linecap="round"/>
    </g>
   </g>
   <g id="freepik--Character--inject-73">
    <path id="Pfad_28464" d="M210.969 270.168 L212.669 273.768 C213.362 275.887 214.267 277.93 215.369 279.868 215.866 280.881 216.583 281.769 217.469 282.468 218.472 283.466 219.618 284.308 220.869 284.968 221.197 285.089 221.459 285.341 221.592 285.664 221.726 285.987 221.717 286.351 221.569 286.668 221.446 286.991 221.192 287.245 220.869 287.368 219.769 287.668 216.469 286.368 213.669 283.368 210.869 280.368 211.269 286.868 211.369 289.168 211.469 291.468 211.469 298.868 210.769 299.468 209.769 300.368 208.569 299.468 208.569 297.068 208.569 294.668 207.869 287.668 206.569 287.768 205.269 287.868 206.169 299.968 206.169 299.968 206.169 299.968 206.769 302.468 205.269 302.668 202.669 302.968 202.769 290.168 202.869 288.968 202.869 288.168 201.569 288.168 201.569 289.168 201.569 290.168 202.569 301.168 199.969 301.468 197.969 301.768 199.969 290.968 198.469 288.768 196.969 286.568 197.769 297.168 195.869 297.368 195.169 297.468 194.569 297.368 195.069 291.268 195.569 285.168 199.469 268.168 199.469 268.168 L211.269 270.268" fill="#ffbe9d" fill-opacity="1" stroke="none"/>
    <path id="Pfad_28465" d="M257.769 180.268 C257.769 180.268 220.869 216.268 219.969 220.968 219.069 225.668 213.769 277.368 213.769 277.368 L196.869 275.668 C196.869 275.668 195.269 211.968 200.569 205.468 205.869 198.968 226.969 174.668 226.969 174.668 Z" fill="#ffbe9d" fill-opacity="1" stroke="none"/>
    <path id="Pfad_28466" d="M202.269 212.168 C202.056 212.055 201.882 211.881 201.769 211.668 201.407 211.103 201.232 210.438 201.269 209.768 201.281 208.776 201.763 207.848 202.569 207.268 203.57 206.492 204.919 206.338 206.069 206.868 206.668 207.148 207.134 207.65 207.369 208.268 207.569 208.851 207.569 209.485 207.369 210.068 207.177 210.538 206.803 210.91 206.331 211.098 205.86 211.287 205.332 211.276 204.869 211.068 204.842 211.068 204.817 211.057 204.798 211.039 204.779 211.02 204.769 210.995 204.769 210.968 204.163 210.589 203.879 209.857 204.069 209.168 204.269 208.668 204.469 208.568 204.469 208.568 204.358 208.75 204.29 208.956 204.269 209.168 204.139 209.716 204.383 210.284 204.869 210.568 205.617 210.859 206.466 210.562 206.869 209.868 207.069 209.458 207.069 208.978 206.869 208.568 206.676 208.095 206.322 207.705 205.869 207.468 204.933 206.96 203.781 207.079 202.969 207.768 202.269 208.263 201.8 209.021 201.669 209.868 201.569 210.683 201.783 211.506 202.269 212.168 Z" fill="#eb996e" fill-opacity="1" stroke="none"/>
    <path id="Pfad_28467" d="M335.369 88.368 C335.169 89.068 331.869 135.668 331.869 135.668 L350.569 134.268 355.169 93.768 Z" fill="#455a64" fill-opacity="1" stroke="none"/>
    <path id="Pfad_28468" d="M331.869 135.568 L329.369 134.868 332.969 87.668 335.669 88.468 Z" fill="#263238" fill-opacity="1" stroke="none"/>
    <path id="Ellipse_281" d="M347.169 99.468 C347.169 100.076 346.677 100.568 346.069 100.568 345.461 100.568 344.969 100.076 344.969 99.468 344.969 98.86 345.461 98.368 346.069 98.368 346.677 98.368 347.169 98.86 347.169 99.468 Z" fill="#263238" fill-opacity="1" stroke="none"/>
    <path id="Pfad_28469" d="M325.569 158.668 L358.469 167.268 353.269 128.268 352.569 126.368 340.469 124.468 341.869 115.568 C342.589 111.638 346.328 109.012 350.269 109.668 350.469 109.668 350.669 109.768 350.869 109.768 L354.869 110.868 C357.711 111.638 360.103 113.559 361.469 116.168 363.769 120.668 365.969 125.568 365.769 125.168 L383.469 173.068 C386.61 179.343 385.83 186.87 381.469 192.368 375.769 199.768 362.069 194.668 355.569 193.368 L313.369 184.068 Z" fill="#ffbe9d" fill-opacity="1" stroke="none"/>
    <path id="Pfad_28470" d="M259.869 111.068 C260.168 111.835 259.97 112.706 259.369 113.268 258.761 113.788 257.921 113.94 257.169 113.668 255.769 113.068 255.469 111.168 255.669 109.668 255.869 108.168 256.269 106.568 255.569 105.168 254.89 104.222 254.042 103.408 253.069 102.768 251.567 101.392 250.791 99.397 250.969 97.368 251.199 95.33 252.55 93.592 254.469 92.868 256.469 92.168 258.869 92.668 260.269 91.168 261.269 90.068 261.269 88.368 261.969 87.068 263.169 85.068 265.869 84.668 268.169 84.768 270.469 84.868 272.869 85.568 275.069 84.868 276.869 84.268 278.369 82.868 280.069 81.968 285.014 79.366 291.132 81.242 293.769 86.168 295.262 88.923 295.373 92.219 294.069 95.068 293.494 96.49 292.43 97.661 291.069 98.368" fill="#263238" fill-opacity="1" stroke="none"/>
    <path id="Pfad_28471" d="M262.169 150.468 L283.969 148.768 C284.069 146.268 283.969 136.368 283.969 136.368 283.969 136.368 293.069 134.968 293.169 125.868 293.269 116.768 291.669 95.968 291.669 95.968 281.159 91.456 269.029 92.987 259.969 99.968 L258.669 100.968 Z" fill="#ffbe9d" fill-opacity="1" stroke="none"/>
    <path id="Pfad_28472" d="M289.569 111.468 C289.017 110.971 288.972 110.121 289.469 109.569 289.966 109.017 290.817 108.972 291.369 109.469 291.921 109.966 291.966 110.816 291.469 111.368 291.237 111.645 290.901 111.812 290.541 111.831 290.18 111.85 289.828 111.719 289.569 111.468 Z" fill="#263238" fill-opacity="1" stroke="none"/>
    <path id="Pfad_28473" d="M291.769 109.368 C291.669 109.568 290.769 108.868 289.469 108.868 288.685 108.944 287.914 109.112 287.169 109.368 287.069 109.268 287.269 108.968 287.669 108.668 288.188 108.279 288.82 108.068 289.469 108.068 290.121 108.052 290.757 108.264 291.269 108.668 291.669 109.068 291.869 109.368 291.769 109.368 Z" fill="#263238" fill-opacity="1" stroke="none"/>
    <path id="Pfad_28474" d="M277.369 110.568 C277.935 110.568 278.446 110.909 278.662 111.432 278.879 111.955 278.759 112.558 278.359 112.958 277.959 113.358 277.356 113.478 276.833 113.261 276.31 113.045 275.969 112.534 275.969 111.968 275.96 111.594 276.104 111.233 276.369 110.968 276.634 110.703 276.995 110.559 277.369 110.568 Z" fill="#263238" fill-opacity="1" stroke="none"/>
    <path id="Pfad_28475" d="M278.169 110.568 C278.069 110.768 277.169 110.068 275.869 110.068 275.088 110.159 274.317 110.326 273.569 110.568 273.369 110.468 273.669 110.168 274.069 109.868 274.588 109.479 275.22 109.268 275.869 109.268 276.521 109.252 277.157 109.464 277.669 109.868 278.069 110.168 278.269 110.468 278.169 110.568 Z" fill="#263238" fill-opacity="1" stroke="none"/>
    <path id="Pfad_28476" d="M283.169 120.768 C283.796 120.483 284.48 120.346 285.169 120.368 285.469 120.368 285.769 120.268 285.769 120.068 285.75 119.759 285.683 119.456 285.569 119.168 285.279 118.318 284.945 117.484 284.569 116.668 283.615 114.522 282.911 112.274 282.469 109.968 283.646 111.986 284.585 114.134 285.269 116.368 285.569 117.268 285.869 118.068 286.169 118.968 286.38 119.366 286.451 119.825 286.369 120.268 286.243 120.507 286.027 120.687 285.769 120.768 285.569 120.768 285.369 120.868 285.169 120.868 284.503 120.982 283.82 120.948 283.169 120.768 Z" fill="#263238" fill-opacity="1" stroke="none"/>
    <path id="Pfad_28477" d="M279.169 122.168 C281.102 123.068 283.158 123.674 285.269 123.968 284.356 125.282 282.695 125.85 281.169 125.368 278.469 124.368 279.169 122.168 279.169 122.168 Z" fill="#ffffff" fill-opacity="1" stroke="none"/>
    <path id="Pfad_28478" d="M283.969 136.168 C279.752 136.249 275.607 135.065 272.069 132.768 272.069 132.768 274.869 139.368 283.969 138.468 Z" fill="#eb996e" fill-opacity="1" stroke="none"/>
    <path id="Pfad_28479" d="M291.869 98.168 C291.869 98.168 286.569 101.268 279.169 98.168 274.269 96.168 268.669 95.468 267.569 96.468 266.469 97.468 266.569 102.368 261.969 104.168 261.969 104.168 262.969 113.368 259.369 113.368 255.769 113.368 256.869 98.768 256.869 98.768 L265.569 93.668 275.269 91.068 284.669 91.668 291.969 93.068 Z" fill="#263238" fill-opacity="1" stroke="none"/>
    <path id="Pfad_28480" d="M259.769 110.268 C259.569 110.268 253.569 108.468 253.769 114.668 253.969 120.868 260.169 119.368 260.169 119.168 260.169 118.968 259.769 110.268 259.769 110.268 Z" fill="#ffbe9d" fill-opacity="1" stroke="none"/>
    <path id="Pfad_28481" d="M258.069 116.868 C257.969 116.968 257.869 116.968 257.769 117.068 257.512 117.168 257.226 117.168 256.969 117.068 256.151 116.546 255.659 115.639 255.669 114.668 255.672 114.121 255.773 113.579 255.969 113.068 256.089 112.664 256.382 112.334 256.769 112.168 257.069 112.068 257.269 112.168 257.469 112.468 257.569 112.668 257.469 112.768 257.569 112.768 257.669 112.768 257.669 112.668 257.669 112.368 257.669 112.168 257.569 112.068 257.369 111.968 257.197 111.839 256.973 111.802 256.769 111.868 256.258 111.996 255.845 112.371 255.669 112.868 255.417 113.397 255.313 113.985 255.369 114.568 255.334 115.706 256.013 116.744 257.069 117.168 257.416 117.249 257.78 117.176 258.069 116.968 258.069 117.068 258.169 116.968 258.069 116.868 Z" fill="#eb996e" fill-opacity="1" stroke="none"/>
    <path id="Pfad_28482" d="M255.469 91.068 C255.369 90.868 256.469 90.468 257.669 90.868 258.869 91.268 259.469 92.168 259.369 92.268 259.269 92.368 258.469 91.768 257.469 91.468 256.469 91.168 255.569 91.268 255.469 91.068 Z" fill="#263238" fill-opacity="1" stroke="none"/>
    <path id="Pfad_28483" d="M259.069 87.168 C259.269 87.168 259.269 88.468 259.569 89.968 259.869 91.468 260.569 92.568 260.369 92.568 259.521 91.955 258.975 91.009 258.869 89.968 258.585 89.042 258.656 88.044 259.069 87.168 Z" fill="#263238" fill-opacity="1" stroke="none"/>
    <path id="Pfad_28484" d="M285.669 107.368 C285.469 107.068 286.569 106.068 288.369 105.968 290.169 105.868 291.369 106.768 291.269 107.068 291.169 107.368 289.969 107.268 288.469 107.268 286.969 107.268 285.869 107.668 285.669 107.368 Z" fill="#263238" fill-opacity="1" stroke="none"/>
    <path id="Pfad_28485" d="M271.769 106.168 C271.569 105.868 272.669 104.868 274.569 104.768 276.469 104.668 277.569 105.568 277.469 105.868 277.369 106.168 276.169 105.968 274.669 106.068 273.169 106.168 271.969 106.568 271.769 106.168 Z" fill="#263238" fill-opacity="1" stroke="none"/>
    <path id="Pfad_28512" d="M309.669 253.668 L299.069 489.068 263.769 489.768 269.669 292.668 229.869 491.268 196.269 491.268 241.169 253.668" fill="#263238" fill-opacity="1" stroke="none"/>
    <path id="Pfad_28525" d="M220.469 395.468 C220.669 395.468 220.669 396.368 220.469 397.468 220.269 398.568 219.969 399.368 219.769 399.368 219.569 399.368 219.569 398.468 219.769 397.368 219.969 396.268 220.269 395.468 220.469 395.468 Z" fill="#455a64" fill-opacity="1" stroke="none"/>
    <path id="Pfad_28526" d="M221.769 387.768 C221.969 387.768 221.969 388.668 221.769 389.768 221.569 390.868 221.269 391.668 221.069 391.668 220.869 391.668 220.869 390.768 221.069 389.668 221.269 388.568 221.569 387.768 221.769 387.768 Z" fill="#455a64" fill-opacity="1" stroke="none"/>
    <path id="Pfad_28527" d="M223.169 380.068 C223.369 380.068 223.369 380.968 223.169 382.068 222.969 383.168 222.669 383.968 222.469 383.968 222.269 383.968 222.269 383.068 222.469 381.968 222.669 380.868 222.969 380.068 223.169 380.068 Z" fill="#455a64" fill-opacity="1" stroke="none"/>
    <path id="Pfad_28528" d="M224.469 372.368 C224.669 372.368 224.669 373.268 224.469 374.368 224.269 375.468 223.969 376.268 223.769 376.268 223.569 376.268 223.569 375.368 223.769 374.268 223.84 373.586 224.08 372.933 224.469 372.368 Z" fill="#455a64" fill-opacity="1" stroke="none"/>
    <path id="Pfad_28529" d="M225.869 364.668 C226.069 364.668 226.069 365.568 225.869 366.668 225.669 367.768 225.369 368.568 225.169 368.568 224.969 368.568 224.969 367.668 225.169 366.568 225.369 365.468 225.669 364.668 225.869 364.668 Z" fill="#455a64" fill-opacity="1" stroke="none"/>
    <path id="Pfad_28530" d="M227.269 356.968 C227.469 356.968 227.469 357.868 227.269 358.968 227.069 360.068 226.769 360.868 226.569 360.868 226.369 360.868 226.369 359.968 226.569 358.868 226.769 357.768 227.069 356.968 227.269 356.968 Z" fill="#455a64" fill-opacity="1" stroke="none"/>
    <path id="Pfad_28531" d="M228.669 349.268 C228.869 349.268 228.869 350.168 228.669 351.268 228.469 352.368 228.169 353.168 227.969 353.168 227.769 353.168 227.769 352.268 227.969 351.168 228.169 350.068 228.469 349.268 228.669 349.268 Z" fill="#455a64" fill-opacity="1" stroke="none"/>
    <path id="Pfad_28532" d="M230.069 341.568 C230.269 341.568 230.269 342.468 230.069 343.568 229.869 344.668 229.569 345.468 229.369 345.468 229.169 345.468 229.169 344.568 229.369 343.468 229.569 342.368 229.869 341.568 230.069 341.568 Z" fill="#455a64" fill-opacity="1" stroke="none"/>
    <path id="Pfad_28533" d="M231.469 333.868 C231.669 333.868 231.669 334.768 231.469 335.868 231.269 336.968 230.969 337.768 230.769 337.768 230.569 337.768 230.569 336.868 230.769 335.768 230.969 334.668 231.269 333.868 231.469 333.868 Z" fill="#455a64" fill-opacity="1" stroke="none"/>
    <path id="Pfad_28534" d="M232.969 326.168 C233.169 326.168 233.169 327.068 232.969 328.168 232.769 329.268 232.469 330.068 232.269 330.068 232.069 330.068 232.069 329.168 232.269 328.068 232.469 326.968 232.769 326.168 232.969 326.168 Z" fill="#455a64" fill-opacity="1" stroke="none"/>
    <path id="Pfad_28535" d="M234.369 318.568 C234.569 318.568 234.569 319.468 234.369 320.568 234.169 321.668 233.869 322.468 233.669 322.468 233.469 322.468 233.469 321.568 233.669 320.468 233.869 319.368 234.169 318.468 234.369 318.568 Z" fill="#455a64" fill-opacity="1" stroke="none"/>
    <path id="Pfad_28536" d="M235.769 310.868 C235.969 310.868 235.969 311.768 235.769 312.868 235.569 313.968 235.269 314.768 235.069 314.768 234.869 314.768 234.869 313.868 235.069 312.768 235.14 312.086 235.38 311.433 235.769 310.868 Z" fill="#455a64" fill-opacity="1" stroke="none"/>
    <path id="Pfad_28537" d="M237.269 303.168 C237.469 303.168 237.469 304.068 237.269 305.168 237.069 306.268 236.769 307.068 236.569 307.068 236.369 307.068 236.369 306.168 236.569 305.068 236.769 303.968 237.069 303.168 237.269 303.168 Z" fill="#455a64" fill-opacity="1" stroke="none"/>
    <path id="Pfad_28538" d="M238.769 295.468 C238.969 295.468 238.969 296.368 238.769 297.468 238.569 298.568 238.269 299.368 238.069 299.268 237.869 299.168 237.869 298.368 238.069 297.268 238.269 296.168 238.569 295.468 238.769 295.468 Z" fill="#455a64" fill-opacity="1" stroke="none"/>
    <path id="Pfad_28539" d="M240.269 287.868 C240.469 287.868 240.469 288.768 240.269 289.868 240.069 290.968 239.769 291.768 239.569 291.768 239.369 291.768 239.369 290.868 239.569 289.768 239.769 288.668 240.069 287.768 240.269 287.868 Z" fill="#455a64" fill-opacity="1" stroke="none"/>
    <path id="Pfad_28540" d="M241.769 280.168 C241.969 280.168 241.969 281.068 241.769 282.168 241.569 283.268 241.269 284.068 241.069 283.968 240.869 283.868 240.869 283.068 241.069 281.968 241.127 281.314 241.37 280.689 241.769 280.168 Z" fill="#455a64" fill-opacity="1" stroke="none"/>
    <path id="Pfad_28541" d="M243.369 272.468 C243.569 272.468 243.569 273.368 243.369 274.468 243.169 275.568 242.869 276.368 242.669 276.268 242.469 276.168 242.469 275.368 242.669 274.268 242.869 273.168 243.169 272.468 243.369 272.468 Z" fill="#455a64" fill-opacity="1" stroke="none"/>
    <path id="Pfad_28542" d="M244.969 264.868 C245.169 264.868 245.169 265.768 244.969 266.868 244.769 267.968 244.369 268.668 244.169 268.668 243.969 268.668 243.969 267.768 244.169 266.668 244.369 265.568 244.769 264.768 244.969 264.868 Z" fill="#455a64" fill-opacity="1" stroke="none"/>
    <path id="Pfad_28543" d="M246.169 259.068 C246.369 259.068 246.369 259.568 246.269 260.068 246.169 260.568 245.969 260.968 245.769 260.968 245.569 260.968 245.469 260.468 245.669 259.968 245.869 259.468 245.969 259.068 246.169 259.068 Z" fill="#455a64" fill-opacity="1" stroke="none"/>
    <path id="Pfad_28555" d="M272.669 401.668 C272.869 401.668 272.969 402.568 272.969 403.668 272.969 404.768 272.769 405.668 272.569 405.668 272.369 405.668 272.269 404.768 272.269 403.668 272.269 402.568 272.469 401.568 272.669 401.668 Z" fill="#455a64" fill-opacity="1" stroke="none"/>
    <path id="Pfad_28556" d="M272.769 393.868 C272.969 393.868 273.069 394.768 273.069 395.868 273.069 396.968 272.869 397.868 272.669 397.868 272.469 397.868 272.369 396.968 272.369 395.868 272.369 394.768 272.569 393.868 272.769 393.868 Z" fill="#455a64" fill-opacity="1" stroke="none"/>
    <path id="Pfad_28557" d="M272.969 385.968 C273.169 385.968 273.269 386.868 273.269 387.968 273.269 389.068 273.069 389.968 272.869 389.968 272.669 389.968 272.569 389.068 272.569 387.968 272.569 386.868 272.769 385.968 272.969 385.968 Z" fill="#455a64" fill-opacity="1" stroke="none"/>
    <path id="Pfad_28558" d="M272.969 378.068 C273.169 378.068 273.269 378.968 273.269 380.068 273.269 381.168 273.069 382.068 272.869 382.068 272.669 382.068 272.569 381.168 272.569 380.068 272.519 379.377 272.657 378.686 272.969 378.068 Z" fill="#455a64" fill-opacity="1" stroke="none"/>
    <path id="Pfad_28559" d="M273.169 370.268 C273.369 370.268 273.469 371.168 273.469 372.268 273.469 373.368 273.269 374.268 273.069 374.268 272.869 374.268 272.769 373.368 272.769 372.268 272.769 371.168 272.869 370.268 273.169 370.268 Z" fill="#455a64" fill-opacity="1" stroke="none"/>
    <path id="Pfad_28560" d="M273.169 362.368 C273.369 362.368 273.469 363.268 273.469 364.368 273.524 365.049 273.421 365.733 273.169 366.368 272.917 365.733 272.814 365.049 272.869 364.368 272.869 363.268 272.869 362.368 273.169 362.368 Z" fill="#455a64" fill-opacity="1" stroke="none"/>
    <path id="Pfad_28561" d="M273.169 354.568 C273.369 354.568 273.469 355.468 273.469 356.568 273.469 357.668 273.369 358.568 273.169 358.568 272.969 358.568 272.869 357.668 272.769 356.568 272.669 355.468 272.869 354.568 273.169 354.568 Z" fill="#455a64" fill-opacity="1" stroke="none"/>
    <path id="Pfad_28562" d="M272.969 346.668 C273.169 346.668 273.369 347.568 273.369 348.668 273.369 349.768 273.269 350.668 273.069 350.668 272.869 350.668 272.669 349.768 272.669 348.668 272.614 347.987 272.717 347.303 272.969 346.668 Z" fill="#455a64" fill-opacity="1" stroke="none"/>
    <path id="Pfad_28563" d="M272.869 338.868 C273.069 338.868 273.269 339.768 273.269 340.868 273.269 341.968 273.169 342.868 272.969 342.868 272.769 342.868 272.569 341.968 272.569 340.868 272.569 339.768 272.669 338.868 272.869 338.868 Z" fill="#455a64" fill-opacity="1" stroke="none"/>
    <path id="Pfad_28564" d="M272.769 330.968 C272.969 330.968 273.169 331.868 273.169 332.968 273.169 334.068 273.069 334.968 272.869 334.968 272.669 334.968 272.469 334.068 272.469 332.968 272.469 331.868 272.569 330.968 272.769 330.968 Z" fill="#455a64" fill-opacity="1" stroke="none"/>
    <path id="Pfad_28565" d="M272.569 323.168 C272.769 323.168 272.969 324.068 272.969 325.168 272.969 326.268 272.869 327.168 272.669 327.168 272.469 327.168 272.269 326.268 272.269 325.168 272.269 324.068 272.369 323.168 272.569 323.168 Z" fill="#455a64" fill-opacity="1" stroke="none"/>
    <path id="Pfad_28566" d="M272.269 315.268 C272.469 315.268 272.669 316.168 272.669 317.268 272.669 318.368 272.569 319.268 272.369 319.268 272.169 319.268 271.969 318.368 271.969 317.268 271.914 316.587 272.017 315.903 272.269 315.268 Z" fill="#455a64" fill-opacity="1" stroke="none"/>
    <path id="Pfad_28567" d="M271.769 307.468 C271.969 307.468 272.169 308.368 272.269 309.368 272.369 310.368 272.269 311.368 272.069 311.368 271.869 311.368 271.669 310.468 271.569 309.468 271.464 308.795 271.533 308.107 271.769 307.468 Z" fill="#455a64" fill-opacity="1" stroke="none"/>
    <path id="Pfad_28568" d="M271.169 299.668 C271.369 299.668 271.569 300.468 271.669 301.568 271.788 302.234 271.754 302.918 271.569 303.568 271.243 302.988 271.071 302.334 271.069 301.668 270.969 300.568 270.969 299.668 271.169 299.668 Z" fill="#455a64" fill-opacity="1" stroke="none"/>
    <path id="Pfad_28569" d="M270.369 293.768 C270.569 293.768 270.769 294.168 270.869 294.668 270.969 295.168 270.869 295.668 270.669 295.668 270.469 295.668 270.269 295.268 270.169 294.768 270.069 294.268 270.169 293.868 270.369 293.768 Z" fill="#455a64" fill-opacity="1" stroke="none"/>
    <path id="Pfad_28570" d="M275.469 256.668 C275.569 257.163 275.569 257.673 275.469 258.168 275.469 259.068 275.369 260.468 275.369 262.168 275.269 265.468 274.969 270.068 274.669 275.168 274.469 277.668 274.369 280.168 274.169 282.368 274.171 284.37 273.868 286.36 273.269 288.269 272.792 289.556 271.82 290.601 270.569 291.168 270.215 291.292 269.844 291.359 269.469 291.368 269.269 291.368 269.069 291.368 269.069 291.268 269.519 291.195 269.956 291.06 270.369 290.868 271.491 290.267 272.347 289.268 272.769 288.068 273.248 286.206 273.483 284.29 273.469 282.368 273.569 280.168 273.769 277.768 273.869 275.168 274.169 270.068 274.469 265.468 274.769 262.168 274.869 260.468 274.969 259.168 275.069 258.168 275.249 257.682 275.383 257.179 275.469 256.668 Z" fill="#455a64" fill-opacity="1" stroke="none"/>
    <path id="Pfad_28571" d="M271.869 259.768 C271.869 259.668 272.469 259.768 272.669 260.568 272.788 261.024 272.676 261.51 272.369 261.868 271.892 262.321 271.177 262.41 270.603 262.089 270.03 261.768 269.732 261.111 269.869 260.468 269.982 260.116 270.235 259.826 270.569 259.668 271.269 259.268 271.769 259.568 271.669 259.668 271.352 259.759 271.049 259.894 270.769 260.068 270.577 260.301 270.441 260.575 270.369 260.868 270.378 261.214 270.628 261.506 270.969 261.568 271.266 261.691 271.606 261.653 271.869 261.468 272.069 261.251 272.177 260.964 272.169 260.668 272.169 260.168 271.769 259.868 271.869 259.768 Z" fill="#455a64" fill-opacity="1" stroke="none"/>
    <path id="Pfad_28572" d="M238.669 265.368 C238.669 265.268 239.769 265.768 241.669 265.968 246.647 266.677 251.59 264.459 254.369 260.268 255.469 258.668 255.769 257.568 255.869 257.668 255.778 258.718 255.397 259.722 254.769 260.568 252.066 265.135 246.775 267.5 241.569 266.468 240.519 266.377 239.515 265.996 238.669 265.368 Z" fill="#455a64" fill-opacity="1" stroke="none"/>
    <path id="Pfad_28573" d="M297.369 256.668 C297.469 256.668 297.469 257.668 297.969 259.068 299.137 262.93 302.391 265.797 306.369 266.468 307.869 266.768 308.869 266.668 308.869 266.768 308.074 267.082 307.204 267.151 306.369 266.968 302.071 266.593 298.511 263.478 297.569 259.268 297.251 258.439 297.182 257.536 297.369 256.668 Z" fill="#455a64" fill-opacity="1" stroke="none"/>
    <path id="Pfad_28574" d="M317.269 262.068 L239.369 256.668 242.069 219.468 242.069 198.668 234.469 210.368 210.969 189.968 236.269 157.068 C240.524 152.569 245.809 149.171 251.669 147.168 254.755 146.071 257.995 145.463 261.269 145.368 268.85 147.768 276.988 147.768 284.569 145.368 291.718 145.995 298.787 147.335 305.669 149.368 L335.169 157.268 325.469 193.468 307.669 187.468 C307.669 187.268 317.469 254.568 317.269 262.068 Z" fill="#32174d" fill-opacity="1" stroke="none"/>
    <path id="Pfad_28575" d="M241.369 199.868 C242.796 196.761 244.647 193.867 246.869 191.268 246.27 192.867 245.463 194.38 244.469 195.768 243.574 197.234 242.536 198.607 241.369 199.868 Z" fill="#263238" fill-opacity="1" stroke="none"/>
    <g id="Gruppe_1349">
     <path id="Pfad_28576" d="M334.069 157.468 C334.069 157.668 312.269 157.768 285.269 157.768 258.269 157.768 236.469 157.568 236.469 157.468 236.469 157.368 258.269 157.168 285.269 157.168 312.269 157.168 334.069 157.268 334.069 157.468 Z" fill="#ffffff" fill-opacity="1" stroke="none"/>
    </g>
    <g id="Gruppe_1350">
     <path id="Pfad_28577" d="M329.369 174.268 C329.369 174.468 305.769 174.568 276.769 174.568 247.769 174.568 224.169 174.468 224.169 174.268 224.169 174.068 247.769 173.968 276.869 173.968 305.969 173.968 329.369 174.068 329.369 174.268 Z" fill="#ffffff" fill-opacity="1" stroke="none"/>
    </g>
    <g id="Gruppe_1351">
     <path id="Pfad_28578" d="M308.869 192.768 C308.869 192.968 287.769 193.068 261.769 193.068 235.769 193.068 214.669 192.868 214.669 192.768 214.669 192.668 235.769 192.468 261.769 192.468 287.769 192.468 308.869 192.568 308.869 192.768 Z" fill="#ffffff" fill-opacity="1" stroke="none"/>
    </g>
    <g id="Gruppe_1352">
     <path id="Pfad_28579" d="M311.369 212.868 C311.369 213.068 295.869 213.168 276.769 213.168 257.669 213.168 242.169 212.968 242.169 212.868 242.169 212.768 257.669 212.568 276.769 212.568 295.869 212.568 311.369 212.668 311.369 212.868 Z" fill="#ffffff" fill-opacity="1" stroke="none"/>
    </g>
    <g id="Gruppe_1353">
     <path id="Pfad_28580" d="M313.369 233.768 C313.369 233.968 297.469 234.068 277.769 234.068 258.069 234.068 242.169 233.868 242.169 233.768 242.169 233.668 258.069 233.468 277.769 233.468 297.469 233.468 313.369 233.568 313.369 233.768 Z" fill="#ffffff" fill-opacity="1" stroke="none"/>
    </g>
    <g id="Gruppe_1354">
     <path id="Pfad_28581" d="M316.669 252.968 C316.669 253.168 299.469 253.268 278.169 253.268 256.869 253.268 239.669 253.068 239.669 252.968 239.669 252.868 256.869 252.668 278.169 252.668 299.469 252.668 316.669 252.768 316.669 252.968 Z" fill="#ffffff" fill-opacity="1" stroke="none"/>
    </g>
   </g>
  </g>
 </g>
</svg>
