<?xml version="1.0" encoding="UTF-8"?>
<svg width="766px" height="766px" viewBox="0 0 766 766" xmlns="http://www.w3.org/2000/svg" xmlns:xlink="http://www.w3.org/1999/xlink" version="1.1">
 <!-- Generated by Pixelmator Pro 2.3 -->
 <path id="Фигура" d="M381.5 755.878 C369.4 755.823 353.966 755.174 347.203 754.436 340.44 753.699 329.299 752.148 322.446 750.991 315.593 749.834 304.701 747.592 298.243 746.01 291.784 744.429 281.1 741.496 274.5 739.493 267.9 737.491 257.542 733.917 251.483 731.551 245.424 729.185 235.749 725.092 229.983 722.455 224.217 719.819 214.55 714.977 208.5 711.696 202.45 708.415 191.925 702.18 185.11 697.84 178.296 693.5 167.505 686.032 161.13 681.243 154.754 676.455 145.705 669.224 141.019 665.175 136.334 661.127 128.077 653.468 122.67 648.157 117.264 642.846 108.665 633.775 103.561 628 98.458 622.225 90.005 611.809 84.778 604.852 79.55 597.896 71.902 586.871 67.781 580.352 63.66 573.834 57.474 563.329 54.033 557.009 50.593 550.689 45.761 541.031 43.296 535.547 40.832 530.063 37.107 521.284 35.019 516.038 32.931 510.792 29.58 501.325 27.573 495 25.566 488.675 22.614 478.325 21.012 472 19.411 465.675 16.986 454.425 15.625 447 14.263 439.575 12.44 426.633 11.574 418.241 10.703 409.8 10 394.054 10 383 10 371.946 10.703 356.2 11.574 347.759 12.44 339.367 14.263 326.425 15.625 319 16.986 311.575 19.411 300.325 21.012 294 22.614 287.675 25.566 277.325 27.573 271 29.58 264.675 32.931 255.208 35.019 249.962 37.107 244.716 40.832 235.937 43.296 230.453 45.761 224.969 50.593 215.311 54.033 208.991 57.474 202.671 63.66 192.166 67.781 185.648 71.902 179.129 79.55 168.104 84.778 161.148 90.005 154.191 98.458 143.775 103.561 138 108.665 132.225 117.264 123.154 122.67 117.843 128.077 112.532 136.334 104.873 141.019 100.825 145.705 96.776 154.754 89.545 161.13 84.757 167.505 79.968 178.296 72.5 185.11 68.16 191.925 63.82 202.671 57.458 208.991 54.023 215.311 50.588 224.969 45.761 230.453 43.296 235.937 40.832 244.716 37.107 249.962 35.019 255.208 32.931 264.675 29.58 271 27.573 277.325 25.566 287.675 22.614 294 21.012 300.325 19.411 311.575 16.986 319 15.625 326.425 14.263 339.367 12.44 347.759 11.574 356.2 10.703 371.946 10 383 10 394.054 10 409.8 10.703 418.241 11.574 426.633 12.44 439.575 14.263 447 15.625 454.425 16.986 465.675 19.411 472 21.012 478.325 22.614 488.675 25.566 495 27.573 501.325 29.58 510.792 32.931 516.038 35.019 521.284 37.107 530.063 40.832 535.547 43.296 541.031 45.761 550.689 50.588 557.009 54.023 563.329 57.458 574.075 63.82 580.89 68.16 587.704 72.5 598.495 79.968 604.87 84.757 611.246 89.545 620.295 96.776 624.981 100.825 629.666 104.873 637.923 112.532 643.33 117.843 648.736 123.154 657.335 132.225 662.439 138 667.542 143.775 675.995 154.191 681.222 161.148 686.45 168.104 694.098 179.129 698.219 185.648 702.34 192.166 708.4 202.45 711.686 208.5 714.973 214.55 719.819 224.217 722.455 229.983 725.092 235.749 729.185 245.424 731.551 251.483 733.917 257.542 737.491 267.9 739.493 274.5 741.496 281.1 744.429 291.784 746.01 298.243 747.592 304.701 749.816 315.501 750.952 322.243 752.088 328.984 753.683 340.8 754.498 348.5 755.312 356.2 755.979 371.725 755.979 383 755.979 394.275 755.312 409.8 754.498 417.5 753.683 425.2 752.088 437.016 750.952 443.757 749.816 450.499 747.549 461.524 745.914 468.257 744.28 474.991 741.107 486.35 738.863 493.5 736.619 500.65 733.007 510.96 730.836 516.41 728.665 521.861 724.812 530.861 722.275 536.41 719.738 541.96 714.973 551.45 711.686 557.5 708.4 563.55 702.34 573.834 698.219 580.352 694.098 586.871 686.45 597.896 681.222 604.852 675.995 611.809 667.542 622.225 662.439 628 657.335 633.775 648.736 642.846 643.33 648.157 637.923 653.468 629.666 661.127 624.981 665.175 620.295 669.224 611.246 676.455 604.87 681.243 598.495 686.032 587.704 693.5 580.89 697.84 574.075 702.18 563.55 708.415 557.5 711.696 551.45 714.977 541.783 719.819 536.017 722.455 530.251 725.092 520.576 729.185 514.517 731.551 508.458 733.917 498.1 737.491 491.5 739.493 484.9 741.496 474.216 744.429 467.757 746.01 461.299 747.592 450.499 749.816 443.757 750.952 437.016 752.088 425.2 753.683 417.5 754.498 409.099 755.386 394.702 755.938 381.5 755.878 Z M388.5 715.412 C407.777 715.177 422.12 714.52 428.627 713.574 434.197 712.763 444.547 710.94 451.627 709.521 458.707 708.103 470.095 705.351 476.933 703.406 483.771 701.461 494.284 698.059 500.296 695.847 506.307 693.635 516.618 689.405 523.208 686.447 529.798 683.489 540.21 678.278 546.345 674.866 552.48 671.455 562 665.716 567.5 662.113 573 658.51 581.325 652.663 586 649.12 590.675 645.578 597.65 639.939 601.5 636.591 605.35 633.242 610.718 628.423 613.43 625.881 618.359 621.26 618.359 621.26 610.43 604.959 606.068 595.993 599.457 583.976 595.738 578.254 592.019 572.532 586.193 564.172 582.79 559.675 579.388 555.179 570.956 545.698 564.052 538.608 557.148 531.517 547 522.1 541.5 517.681 536 513.263 527.022 506.735 521.55 503.175 516.077 499.615 506.177 493.949 499.55 490.584 492.922 487.219 482.637 482.553 476.692 480.214 470.748 477.875 461.256 474.662 455.599 473.074 449.942 471.485 440.856 469.264 435.407 468.138 429.958 467.012 420.325 465.508 414 464.795 407.675 464.083 393.725 463.5 383 463.5 372.275 463.5 358.325 464.083 352 464.795 345.675 465.508 336.042 467.012 330.593 468.138 325.144 469.264 316.02 471.496 310.316 473.097 304.613 474.699 295.346 477.826 289.723 480.046 284.1 482.266 274.381 486.622 268.124 489.725 261.868 492.828 252.193 498.253 246.624 501.78 241.056 505.307 232.45 511.351 227.5 515.212 222.55 519.073 213.389 527.242 207.142 533.366 200.895 539.49 192.495 548.41 188.475 553.188 184.455 557.967 177.332 567.642 172.645 574.688 167.959 581.735 160.412 595.092 155.873 604.37 147.621 621.241 147.621 621.241 152.56 625.872 155.277 628.419 160.65 633.242 164.5 636.591 168.35 639.939 175.325 645.578 180 649.12 184.675 652.663 193 658.51 198.5 662.113 204 665.716 213.52 671.455 219.655 674.866 225.79 678.278 236.202 683.489 242.792 686.447 249.382 689.405 259.693 693.635 265.704 695.847 271.716 698.059 282.229 701.461 289.067 703.406 295.905 705.351 307.251 708.094 314.28 709.503 321.309 710.911 332.109 712.708 338.28 713.498 344.451 714.287 351.525 715.123 354 715.355 356.475 715.587 372 715.613 388.5 715.412 Z M294.183 437.282 C283.579 429.883 277.11 424.913 272.967 421.463 268.825 418.013 262.174 411.757 258.188 407.561 254.203 403.366 248.303 396.374 245.078 392.024 241.853 387.674 237.164 380.827 234.659 376.808 232.154 372.788 228.291 365.631 226.075 360.902 223.859 356.173 220.487 347.623 218.581 341.902 216.674 336.181 214.163 327 213.001 321.5 211.647 315.097 210.677 305.873 210.305 295.855 209.855 283.773 210.123 277.397 211.479 267.859 212.445 261.066 214.552 250.82 216.161 245.089 217.77 239.358 221.121 229.906 223.608 224.085 226.094 218.263 230.407 209.675 233.192 205 235.976 200.325 240.731 193.174 243.758 189.108 246.784 185.043 252.28 178.29 255.971 174.102 259.661 169.914 266.465 163.297 271.09 159.398 275.716 155.499 283.1 149.817 287.5 146.772 291.9 143.727 299.325 139.184 304 136.676 308.675 134.168 317.166 130.303 322.869 128.087 328.572 125.871 337.685 122.937 343.12 121.566 348.554 120.196 356.8 118.569 361.443 117.951 366.086 117.333 375.786 116.828 383 116.828 390.214 116.828 399.914 117.333 404.557 117.951 409.2 118.569 417.446 120.196 422.88 121.566 428.315 122.937 437.428 125.871 443.131 128.087 448.834 130.303 457.325 134.168 462 136.676 466.675 139.184 474.1 143.727 478.5 146.772 482.9 149.817 490.284 155.499 494.91 159.398 499.535 163.297 506.339 169.914 510.029 174.102 513.72 178.29 519.216 185.043 522.242 189.108 525.269 193.174 530.024 200.325 532.808 205 535.593 209.675 539.913 218.282 542.41 224.126 544.906 229.97 548.294 239.645 549.939 245.626 551.583 251.607 553.62 261.283 554.465 267.128 555.309 272.974 555.997 283.324 555.994 290.128 555.991 296.933 555.311 306.995 554.483 312.49 553.654 317.984 551.857 326.686 550.489 331.827 549.12 336.969 546.254 345.626 544.119 351.065 541.984 356.504 537.918 365.127 535.085 370.227 532.251 375.327 527.131 383.413 523.707 388.196 520.282 392.978 514.14 400.572 510.058 405.071 505.976 409.57 499.231 416.174 495.068 419.746 490.906 423.318 483.974 428.726 479.664 431.764 L471.829 437.287 483.201 441.493 C489.456 443.807 500.376 448.476 507.469 451.868 514.561 455.261 526.138 461.482 533.195 465.692 540.252 469.903 551.532 477.493 558.263 482.56 564.993 487.627 575.45 496.239 581.5 501.699 587.55 507.159 596.825 516.548 602.112 522.563 607.398 528.578 614.432 537.1 617.742 541.5 621.052 545.9 626.851 554.259 630.63 560.076 634.408 565.892 639.525 574.55 642 579.314 644.475 584.078 646.815 587.982 647.201 587.988 647.587 587.995 650.538 584.287 653.76 579.75 656.982 575.213 661.909 567.9 664.709 563.5 667.509 559.1 672.328 550.947 675.418 545.382 678.507 539.817 683.463 529.856 686.43 523.245 689.397 516.634 693.635 506.307 695.847 500.296 698.059 494.284 701.464 483.771 703.414 476.933 705.364 470.095 708.284 457.75 709.903 449.5 711.521 441.25 713.443 429.1 714.173 422.5 714.953 415.449 715.5 399.158 715.5 383 715.5 366.842 714.953 350.551 714.173 343.5 713.443 336.9 711.521 324.75 709.903 316.5 708.284 308.25 705.364 295.905 703.414 289.067 701.464 282.229 698.059 271.716 695.847 265.704 693.635 259.693 689.405 249.382 686.447 242.792 683.489 236.202 678.278 225.79 674.866 219.655 671.455 213.52 665.716 204 662.113 198.5 658.51 193 652.658 184.675 649.108 180 645.558 175.325 638.71 167 633.891 161.5 629.071 156 621.611 148.091 617.314 143.925 613.016 139.759 606.125 133.415 602 129.828 597.875 126.24 590.675 120.41 586 116.872 581.325 113.333 573 107.49 567.5 103.887 562 100.284 552.48 94.545 546.345 91.134 540.21 87.722 529.798 82.511 523.208 79.553 516.618 76.595 506.307 72.365 500.296 70.153 494.284 67.941 483.771 64.536 476.933 62.586 470.095 60.636 457.75 57.716 449.5 56.097 441.25 54.479 429.1 52.557 422.5 51.827 415.449 51.047 399.158 50.5 383 50.5 366.842 50.5 350.551 51.047 343.5 51.827 336.9 52.557 324.75 54.479 316.5 56.097 308.25 57.716 295.905 60.636 289.067 62.586 282.229 64.536 271.716 67.941 265.704 70.153 259.693 72.365 249.382 76.595 242.792 79.553 236.202 82.511 225.79 87.722 219.655 91.134 213.52 94.545 204 100.284 198.5 103.887 193 107.49 184.675 113.342 180 116.892 175.325 120.442 167 127.29 161.5 132.109 156 136.929 148.091 144.389 143.925 148.686 139.759 152.984 133.415 159.875 129.828 164 126.24 168.125 120.41 175.325 116.872 180 113.333 184.675 107.49 193 103.887 198.5 100.284 204 94.545 213.52 91.134 219.655 87.722 225.79 82.511 236.202 79.553 242.792 76.595 249.382 72.365 259.693 70.153 265.704 67.941 271.716 64.536 282.229 62.586 289.067 60.636 295.905 57.716 308.25 56.097 316.5 54.479 324.75 52.557 336.9 51.827 343.5 51.047 350.551 50.5 366.842 50.5 383 50.5 399.158 51.047 415.449 51.827 422.5 52.557 429.1 54.479 441.25 56.097 449.5 57.716 457.75 60.636 470.095 62.586 476.933 64.536 483.771 67.941 494.284 70.153 500.296 72.365 506.307 76.603 516.634 79.57 523.245 82.537 529.856 87.493 539.817 90.582 545.382 93.672 550.947 98.491 559.1 101.291 563.5 104.091 567.9 109.018 575.213 112.24 579.75 115.462 584.287 118.413 587.995 118.799 587.988 119.185 587.982 121.525 584.074 124 579.304 126.475 574.534 132.042 565.201 136.371 558.565 140.699 551.929 147.098 542.836 150.591 538.358 154.083 533.88 161.172 525.529 166.343 519.802 171.515 514.074 180.56 505.138 186.442 499.944 192.325 494.75 202.292 486.631 208.591 481.903 214.89 477.175 225.802 469.871 232.84 465.672 239.878 461.473 251.439 455.261 258.531 451.868 265.624 448.476 276.547 443.806 282.805 441.491 L294.183 437.282 Z M387 422.436 C396.151 422.224 406.813 421.38 410.937 420.541 415.028 419.709 421.976 417.863 426.378 416.438 430.78 415.013 437.249 412.547 440.754 410.958 444.258 409.369 449.91 406.4 453.313 404.361 456.716 402.323 463.159 397.824 467.631 394.366 472.104 390.907 478.343 385.247 481.496 381.788 484.649 378.33 489.469 372.35 492.207 368.5 494.945 364.65 499.185 357.538 501.63 352.696 504.074 347.854 507.4 339.934 509.021 335.097 510.641 330.26 512.666 323.197 513.521 319.401 514.375 315.606 515.353 305.3 515.695 296.5 516.089 286.333 515.882 277 515.126 270.9 514.472 265.621 512.854 257.255 511.53 252.311 510.207 247.367 507.342 239.186 505.163 234.132 502.984 229.079 498.794 221.061 495.851 216.315 492.908 211.57 486.225 203.183 481 197.678 475.775 192.173 468.069 185.114 463.875 181.992 459.682 178.869 451.807 174.042 446.375 171.264 440.944 168.487 432.068 164.804 426.652 163.08 421.235 161.355 412.46 159.195 407.152 158.279 401.161 157.245 392 156.613 383 156.613 374 156.613 364.839 157.245 358.848 158.279 353.54 159.195 344.765 161.355 339.348 163.08 333.932 164.804 325.056 168.487 319.625 171.264 314.193 174.042 306.318 178.869 302.125 181.992 297.931 185.114 290.225 192.173 285 197.678 279.775 203.183 273.092 211.57 270.149 216.315 267.206 221.061 263.016 229.079 260.837 234.132 258.658 239.186 255.793 247.367 254.47 252.311 253.146 257.255 251.528 265.621 250.874 270.9 250.118 277 249.911 286.333 250.305 296.5 250.647 305.3 251.625 315.606 252.479 319.401 253.334 323.197 255.359 330.26 256.979 335.097 258.6 339.934 261.926 347.854 264.37 352.696 266.815 357.538 271.055 364.65 273.793 368.5 276.531 372.35 281.351 378.33 284.504 381.788 287.657 385.247 293.896 390.907 298.369 394.366 302.841 397.824 309.284 402.323 312.687 404.361 316.09 406.4 321.715 409.356 325.187 410.931 328.659 412.505 335.1 414.97 339.5 416.408 343.9 417.847 351.1 419.678 355.5 420.477 359.9 421.276 365.075 422.13 367 422.374 368.925 422.619 377.925 422.647 387 422.436 Z" fill="#32174d" fill-opacity="1" stroke="#32174d" stroke-width="19" stroke-opacity="1" stroke-linejoin="round" stroke-linecap="round"/>
</svg>
